
<svg xmlns="http://www.w3.org/2000/svg" xmlns:xlink="http://www.w3.org/1999/xlink" width="50px" height="50px" viewBox="0 0 1200 1200">
  <g id="J1IRDMmSqM4zSCoYL1F-r">
<rect style="stroke: rgb(193,193,193); stroke-width: 0; stroke-dasharray: none; stroke-linecap: butt; stroke-dashoffset: 0; stroke-linejoin: miter; stroke-miterlimit: 4; fill: rgb(255,255,255); fill-rule: nonzero; opacity: 0;" x="-600" y="-600" rx="0" ry="0" width="1200" height="1200" transform="matrix(1 0 0 1 600 600)"/>
</g>
<g id="p5OYHakjU6A4DU5PQNZJR">
<g style="">
		<g id="Capa_1">
<path style="stroke: rgb(193,193,193); stroke-width: 0; stroke-dasharray: none; stroke-linecap: butt; stroke-dashoffset: 0; stroke-linejoin: miter; stroke-miterlimit: 4; fill: rgb(255,255,255); fill-rule: nonzero; opacity: 1;" transform="matrix(23.296809 0 0 23.296809 600.375156 593.963513) matrix(1 0 0 1 0 0)  translate(-22.766, -22.766)" d="M 22.77 0.00 C 10.19 0.00 0.00 10.19 0.00 22.77 C 0.00 35.34 10.19 45.53 22.77 45.53 C 35.34 45.53 45.53 35.34 45.53 22.77 C 45.53 10.19 35.34 0.00 22.77 0.00 z M 22.77 6.81 C 26.93 6.81 30.30 10.18 30.30 14.34 C 30.30 18.50 26.93 21.87 22.77 21.87 C 18.61 21.87 15.24 18.50 15.24 14.34 C 15.24 10.18 18.61 6.81 22.77 6.81 z M 22.76 39.58 C 18.61 39.58 14.81 38.07 11.88 35.57 C 11.17 34.96 10.75 34.06 10.75 33.13 C 10.75 28.91 14.17 25.54 18.39 25.54 L 27.15 25.54 C 31.37 25.54 34.77 28.91 34.77 33.13 C 34.77 34.07 34.36 34.96 33.64 35.57 C 30.71 38.07 26.91 39.58 22.76 39.58 z" stroke-linecap="round"/>
</g>
</g>
</g>

  </svg>